# xmcd CD database file
#
# Track frame offsets:
#	150
#	12670
#	25210
#	40921
#	56270
#	70774
#	83407
#	94858
#	109470
#	123979
#	137585
#	150071
#	165835
#	181188
#	195615
#	207729
#	222593
#	237729
#	252576
#	268004
#
# Disc length: 3752 seconds
#
# Revision: 1
# Processed by: cddbd v1.5.2PL0 Copyright (c) Steve Scherf et al.
# Submitted via: CDex 1.70beta2
#
DISCID=180ea614
DTITLE=Benny Goodman - Jazz Roads CD122 - Swing - Benny Goodman Groups Vol.1 (1935-36)
DYEAR=2006
DGENRE=Jazz
TTITLE0=Benny Goodman Trio - After You've Gone
TTITLE1=Benny Goodman Trio - After You've Gone
TTITLE2=Benny Goodman Trio - Body And Soul
TTITLE3=Benny Goodman Trio - Body And Soul
TTITLE4=Benny Goodman Trio - Who
TTITLE5=Benny Goodman Trio - Someday Sweetheart
TTITLE6=Benny Goodman Trio - China Boy
TTITLE7=Benny Goodman Trio - More Than You Know
TTITLE8=Benny Goodman Trio - All My Life
TTITLE9=Benny Goodman Trio - Oh, Lady Be Good
TTITLE10=Benny Goodman Trio - Nobody's Sweetheart
TTITLE11=Benny Goodman Trio - Too Good To Be True
TTITLE12=Benny Goodman Quartet - Moon Glow
TTITLE13=Benny Goodman Quartet - Moon Glow
TTITLE14=Benny Goodman Quartet - Dinah
TTITLE15=Benny Goodman Quartet - Exactly Like You
TTITLE16=Benny Goodman Quartet - Vibraphone Blues
TTITLE17=Benny Goodman Quartet - Sweet Sue-Just You
TTITLE18=Benny Goodman Quartet - My Melancholy Baby
TTITLE19=Benny Goodman Quartet - Tiger Rag
EXTD=YEAR: 2006
EXTT0=
EXTT1=
EXTT2=
EXTT3=
EXTT4=
EXTT5=
EXTT6=
EXTT7=
EXTT8=
EXTT9=
EXTT10=
EXTT11=
EXTT12=
EXTT13=
EXTT14=
EXTT15=
EXTT16=
EXTT17=
EXTT18=
EXTT19=
PLAYORDER=
